<?xml version="1.0" standalone="no"?>
<!DOCTYPE svg PUBLIC "-//W3C//DTD SVG 20010904//EN"
 "http://www.w3.org/TR/2001/REC-SVG-20010904/DTD/svg10.dtd">
<svg version="1.0" xmlns="http://www.w3.org/2000/svg"
 width="1920.000000pt" height="1280.000000pt" viewBox="0 0 1920.000000 1280.000000"
 preserveAspectRatio="xMidYMid meet">

<g transform="translate(0.000000,1280.000000) scale(0.100000,-0.100000)"
fill="#000000" stroke="none">
<path d="M85 12703 c10 -168 16 -223 26 -218 5 4 10 -4 10 -17 1 -17 3 -18 6
-5 5 19 19 23 25 5 3 -8 9 -8 24 0 10 6 14 12 8 12 -7 0 -14 8 -16 18 -4 13 3
22 23 29 20 8 29 8 32 0 4 -14 77 -10 92 4 12 11 92 12 99 0 3 -4 27 -6 53 -3
27 2 63 4 81 3 22 -1 32 4 32 14 0 8 -4 15 -10 15 -15 0 -12 27 4 33 14 6 48
-2 89 -18 10 -4 24 -23 32 -41 l14 -34 46 22 c25 12 45 26 45 30 0 12 138 10
145 -2 3 -5 24 -10 46 -10 22 0 53 -7 69 -15 16 -8 53 -17 81 -20 29 -2 57 -9
62 -14 6 -6 24 -11 40 -11 22 0 28 -4 23 -15 -3 -10 1 -15 12 -15 21 -1 54
-25 46 -33 -4 -3 1 -14 11 -23 13 -14 18 -15 25 -4 6 9 9 6 12 -11 2 -18 8
-23 24 -21 29 4 39 -46 20 -93 -13 -30 -12 -35 5 -54 23 -25 23 -25 65 -9 40
14 49 32 28 53 -9 8 -11 15 -5 15 6 0 11 4 11 9 0 6 11 22 25 37 14 15 25 35
25 45 0 11 7 19 16 19 11 0 14 5 10 16 -5 13 -2 15 14 11 11 -3 23 -1 26 4 3
5 17 9 31 9 29 0 91 50 85 68 -2 7 2 12 8 12 7 0 10 7 7 15 -8 19 44 33 102
27 31 -3 45 -9 48 -22 3 -10 17 -24 31 -31 15 -7 35 -19 44 -27 24 -20 88 1
88 30 0 14 5 18 16 14 10 -4 18 3 25 23 9 26 15 29 72 35 107 12 127 17 127
35 1 14 2 14 15 -3 7 -10 18 -15 24 -12 6 4 24 0 40 -9 20 -10 32 -12 36 -4 4
6 16 14 27 18 12 4 27 27 37 57 18 51 33 63 39 29 2 -11 10 -27 18 -36 7 -8
15 -32 16 -53 3 -33 6 -37 26 -33 29 6 55 -19 48 -47 -3 -12 1 -29 8 -38 12
-16 17 -16 79 -1 65 16 67 17 64 46 -2 36 6 38 131 37 45 -1 81 2 80 7 -1 4
14 33 35 64 39 61 33 58 164 77 33 5 65 12 71 16 5 3 12 -1 16 -9 3 -8 13 -15
23 -15 10 0 38 -12 63 -26 40 -24 58 -27 160 -30 63 -3 119 -9 124 -14 6 -6
44 -10 86 -10 107 0 150 -9 150 -30 0 -10 7 -23 15 -30 12 -10 15 -7 20 13 8
30 33 43 41 22 8 -19 53 -10 72 14 13 16 38 21 96 21 36 -1 68 9 62 19 -3 4
-2 12 2 18 5 7 36 7 105 -1 54 -7 100 -9 103 -5 2 4 20 9 39 11 27 3 36 0 41
-14 3 -10 21 -25 39 -33 22 -9 37 -23 41 -40 3 -14 15 -30 25 -36 11 -5 19
-18 19 -29 0 -10 5 -22 10 -25 6 -3 10 -1 10 6 0 7 3 9 6 6 4 -3 15 -2 25 4
15 7 21 6 25 -6 3 -8 12 -15 20 -15 7 0 35 -20 61 -45 44 -41 49 -43 62 -27
10 13 15 14 18 4 4 -10 8 -10 19 -1 11 9 14 9 14 -1 0 -12 28 -39 41 -40 3 0
16 21 28 48 12 26 26 55 32 64 5 10 11 39 14 65 6 46 24 73 51 73 6 0 26 -27
43 -61 27 -53 30 -66 22 -98 -5 -20 -12 -66 -14 -102 -4 -50 -13 -79 -35 -115
-36 -59 -49 -146 -32 -218 14 -62 -1 -113 -35 -122 -29 -7 -39 -45 -27 -100 6
-28 5 -53 -4 -84 -16 -53 -18 -156 -4 -165 6 -3 7 -17 4 -29 -10 -43 -11 -211
0 -225 8 -10 4 -18 -14 -33 l-25 -20 21 -17 c67 -54 54 -151 -20 -151 -28 0
-37 -7 -65 -49 -36 -57 -39 -105 -8 -158 16 -27 17 -37 6 -72 -10 -33 -9 -48
5 -92 l17 -52 -26 -21 c-21 -17 -25 -27 -21 -56 3 -19 5 -52 5 -72 1 -30 6
-39 29 -50 25 -13 27 -17 24 -68 -4 -57 -26 -89 -64 -90 -30 0 -36 -32 -33
-189 l3 -154 27 -15 c27 -13 27 -16 21 -75 -6 -58 -10 -65 -53 -103 -39 -36
-45 -45 -39 -68 4 -17 1 -40 -9 -60 -22 -47 -5 -110 35 -126 38 -16 42 -40 24
-145 -22 -120 -19 -113 -59 -136 -40 -24 -45 -55 -20 -116 20 -47 19 -53 -8
-53 -29 0 -47 -18 -47 -47 0 -24 4 -27 54 -38 l29 -6 -6 -105 c-4 -58 -12
-115 -19 -127 -14 -26 -15 -40 -22 -257 -3 -91 -9 -182 -14 -203 -14 -55 -39
-87 -67 -87 -33 0 -60 -28 -44 -46 6 -8 18 -14 26 -14 16 0 45 -62 38 -82 -2
-7 -6 -83 -9 -168 -2 -85 -9 -171 -15 -190 -6 -19 -16 -75 -22 -125 -6 -49
-15 -98 -21 -108 -6 -13 -6 -23 3 -33 8 -10 12 -42 11 -88 -2 -62 1 -75 15
-80 9 -4 103 -11 207 -17 105 -5 226 -15 268 -21 57 -8 113 -7 214 2 109 10
175 10 328 0 208 -14 550 -9 626 10 73 17 120 41 126 65 3 12 10 57 15 101 5
43 14 111 19 149 5 39 14 120 19 180 5 61 14 131 20 158 6 26 10 66 9 90 -1
23 4 128 12 232 11 160 16 194 32 215 16 21 19 38 17 100 -5 153 -3 166 34
187 30 18 34 26 45 94 7 41 17 119 22 175 5 56 13 121 19 145 5 24 14 91 21
149 6 58 16 125 22 150 6 25 12 90 14 145 3 55 8 116 13 135 11 42 31 184 37
260 2 30 8 73 13 95 17 71 22 108 27 190 3 44 10 92 15 107 6 15 9 53 6 84 -3
33 0 73 8 93 6 20 12 64 12 97 1 82 12 144 26 141 10 -2 12 10 20 83 1 14 6
28 12 32 5 4 4 16 -3 30 -16 29 -16 37 -7 178 4 63 14 127 21 141 9 19 12 47
7 94 -5 58 -10 69 -35 88 -24 18 -28 27 -28 71 1 92 15 135 54 171 20 18 36
40 36 49 0 9 7 16 15 16 22 0 39 36 20 44 -22 8 -20 82 3 92 9 4 22 6 27 4 30
-8 65 -8 65 0 0 6 -7 10 -15 10 -10 0 -15 10 -16 28 0 26 -1 26 -9 5 -5 -13
-14 -23 -20 -23 -13 0 -13 26 1 52 8 14 8 23 0 31 -17 17 -14 50 3 44 10 -4
13 -1 9 9 -3 8 1 14 8 14 10 0 10 3 1 12 -9 9 -8 16 5 30 12 14 13 21 4 32 -9
11 -8 15 5 20 8 3 18 6 20 6 8 0 4 -36 -6 -46 -5 -5 -7 -20 -3 -33 5 -19 11
-22 34 -17 26 5 29 3 30 -22 1 -15 0 -37 -1 -50 -1 -17 5 -24 28 -28 26 -5 31
-12 36 -48 9 -55 19 -71 42 -61 17 8 17 9 -4 13 -30 5 -23 27 9 28 14 0 30 3
36 7 6 4 18 4 27 1 11 -4 16 0 16 14 0 12 -4 24 -10 27 -5 3 -10 2 -10 -3 0
-6 -10 -6 -24 1 -31 15 -38 57 -22 128 9 43 16 54 31 54 16 0 21 9 25 40 3 27
10 40 20 40 22 0 27 -73 6 -81 -12 -5 -13 -10 -5 -25 8 -16 6 -19 -16 -19 -20
0 -25 -5 -25 -24 0 -22 2 -23 48 -15 85 13 131 29 146 51 8 12 13 25 10 29 -2
4 24 7 58 6 35 -1 63 -6 63 -12 1 -5 6 -20 13 -33 7 -12 10 -27 6 -33 -4 -6
-2 -14 4 -18 6 -3 14 -19 17 -34 6 -24 5 -27 -19 -27 -28 0 -35 -14 -11 -24 8
-3 20 -17 25 -31 8 -20 16 -25 45 -25 19 0 35 -4 35 -10 0 -5 5 -10 10 -10 6
0 10 14 10 30 0 26 -4 30 -27 30 -38 0 -61 15 -38 24 9 3 20 4 25 1 4 -3 13 2
20 10 16 19 30 19 30 0 0 -22 47 -19 60 4 5 11 10 29 10 41 0 12 4 18 10 15 5
-3 19 5 30 18 17 19 28 23 71 21 31 -2 58 -9 70 -20 16 -14 24 -15 44 -6 15 7
25 8 25 2 0 -6 7 -10 15 -10 9 0 12 -6 9 -15 -5 -11 1 -15 19 -15 14 0 29 -4
32 -10 3 -6 -24 -10 -72 -10 -68 0 -120 -3 -159 -8 -13 -2 -25 -62 -17 -90 5
-21 46 -38 51 -22 6 16 42 12 48 -5 7 -18 25 -20 22 -2 -2 7 10 13 30 15 17 2
32 2 32 0 7 -57 8 -80 4 -70 -3 6 -23 12 -44 12 -30 0 -40 -4 -45 -21 -11 -34
9 -45 52 -26 21 9 53 19 71 22 17 4 32 11 32 16 0 5 21 8 48 8 26 -1 69 2 95
6 54 9 127 -16 127 -43 0 -18 -46 -62 -66 -62 -8 0 -14 -10 -14 -25 0 -18 5
-25 20 -25 10 0 23 -7 27 -14 5 -8 22 -21 38 -28 41 -18 44 -44 5 -51 -21 -5
-28 -11 -24 -22 5 -11 -1 -15 -25 -15 -36 0 -42 17 -8 22 21 4 21 5 -5 18 -16
7 -28 19 -28 27 0 10 -19 13 -74 13 -83 0 -116 -7 -94 -21 10 -7 11 -12 1 -29
-17 -26 -16 -40 1 -40 20 0 31 -19 18 -32 -7 -7 -4 -20 9 -42 10 -17 19 -38
20 -46 0 -8 13 -25 30 -38 l29 -24 0 26 c0 19 5 26 20 26 24 0 24 3 0 -45
l-20 -40 20 -7 c32 -12 25 -42 -13 -56 -18 -7 -43 -12 -55 -12 -12 0 -22 -4
-22 -8 0 -5 -11 -14 -24 -22 -22 -11 -44 -51 -27 -48 26 3 33 -3 21 -17 -12
-14 -4 -15 78 -9 61 5 92 3 92 -3 0 -6 -17 -14 -37 -18 -20 -4 -49 -17 -64
-29 -23 -19 -35 -22 -95 -19 -38 2 -71 9 -75 15 -4 7 -9 6 -14 -2 -4 -7 6 -25
25 -45 21 -22 28 -35 20 -40 -6 -4 -9 -13 -6 -20 2 -7 0 -17 -6 -23 -7 -7 -3
-12 11 -17 28 -9 76 2 92 21 22 26 39 -3 39 -67 0 -58 1 -60 30 -65 21 -5 30
-12 30 -25 0 -23 -18 -25 -26 -4 -10 24 -26 17 -18 -7 13 -41 12 -98 -3 -98
-7 0 -13 -6 -14 -12 0 -7 -2 -33 -3 -58 -2 -25 -2 -39 1 -32 3 6 12 12 20 12
13 0 15 -9 10 -47 -3 -26 -10 -49 -17 -51 -42 -14 -81 -102 -45 -102 25 0 42
-22 37 -48 -3 -16 1 -28 12 -34 21 -12 21 -34 -1 -46 -16 -9 -16 -11 0 -27 9
-9 17 -25 17 -35 0 -11 5 -31 12 -45 10 -21 8 -32 -11 -65 l-22 -39 21 -13
c17 -11 20 -23 20 -84 0 -65 -13 -128 -30 -147 -3 -4 -15 -9 -26 -11 -33 -6
-115 -66 -170 -123 -31 -32 -67 -84 -89 -131 -21 -42 -45 -88 -55 -102 -10
-14 -24 -47 -33 -75 -8 -27 -26 -81 -40 -120 -14 -38 -31 -114 -38 -167 -11
-85 -10 -107 5 -185 9 -48 21 -92 26 -99 6 -6 17 -46 25 -90 9 -43 21 -106 27
-139 6 -33 20 -73 30 -90 10 -16 18 -38 18 -48 0 -9 9 -34 20 -54 13 -25 20
-57 20 -95 0 -31 4 -60 10 -63 5 -3 18 -25 28 -48 11 -23 41 -65 68 -92 86
-88 198 -138 342 -150 60 -5 85 -11 89 -22 6 -16 -33 -149 -50 -170 -5 -7 -13
-27 -17 -45 -5 -18 -16 -58 -25 -88 -8 -30 -20 -73 -24 -95 -25 -111 -75 -210
-136 -266 -55 -52 -91 -62 -230 -70 -124 -6 -132 -5 -178 18 -26 13 -70 28
-97 33 -79 15 -99 -3 -60 -53 12 -14 39 -61 61 -104 48 -93 76 -139 107 -177
12 -16 22 -37 22 -47 0 -19 22 -77 47 -119 8 -14 23 -45 34 -70 18 -40 47 -88
111 -182 10 -15 18 -34 18 -43 0 -9 7 -18 15 -21 8 -3 24 -22 36 -42 12 -21
37 -59 54 -87 34 -53 60 -96 108 -182 15 -29 32 -53 37 -53 4 0 17 -19 28 -43
11 -23 55 -81 98 -127 44 -47 97 -106 119 -131 22 -25 101 -94 175 -154 74
-60 149 -120 166 -134 17 -14 86 -69 153 -121 68 -52 140 -108 161 -125 21
-16 73 -55 115 -85 43 -30 96 -69 119 -85 22 -17 86 -55 141 -84 55 -30 141
-77 190 -106 50 -28 103 -55 120 -59 16 -4 47 -21 69 -37 22 -16 45 -29 51
-29 5 0 32 -12 59 -26 33 -18 51 -23 59 -15 7 7 16 7 30 -1 27 -14 137 -27
137 -16 0 10 216 2 233 -9 7 -4 53 -6 102 -5 50 2 97 -2 105 -7 13 -10 13 -11
0 -11 -12 -1 -12 -2 2 -10 9 -6 71 -13 137 -17 92 -4 121 -9 121 -20 0 -9 -13
-13 -41 -13 -24 0 -38 -4 -34 -10 3 -6 20 -10 36 -10 19 0 28 -4 24 -11 -4 -6
-14 -8 -22 -5 -18 7 -56 -12 -48 -24 5 -8 -62 -36 -77 -32 -4 1 -5 -5 -2 -13
4 -10 0 -15 -12 -15 -16 0 -16 -2 -4 -14 21 -21 144 -38 215 -31 90 10 262 51
333 80 34 14 89 36 122 49 212 86 437 281 542 471 l55 100 18 165 c9 91 23
174 30 186 13 20 24 21 227 27 117 3 236 10 263 16 28 6 88 15 134 21 78 9
162 38 256 87 17 9 44 23 60 31 17 9 49 35 71 58 23 23 56 50 75 59 43 23 52
33 78 82 11 23 25 45 31 48 6 4 22 24 35 45 38 60 135 152 187 179 26 13 62
37 80 53 18 16 43 31 55 34 13 4 23 14 23 24 0 21 19 30 61 30 25 0 29 -3 24
-19 -3 -10 1 -24 10 -31 8 -7 15 -24 15 -39 0 -15 -3 -21 -8 -14 -4 6 -7 -24
-8 -68 0 -47 -5 -84 -12 -91 -14 -14 -16 -64 -3 -72 5 -4 7 -18 5 -34 -2 -15
-7 -67 -10 -117 -8 -131 -9 -138 -22 -162 -7 -12 -12 -39 -12 -60 0 -21 -4
-45 -10 -53 -5 -9 -5 -19 2 -27 7 -9 7 -17 -1 -27 -10 -11 -10 -20 -1 -37 9
-16 9 -23 1 -29 -7 -4 -11 -33 -10 -76 0 -38 -3 -80 -9 -94 -21 -53 59 -141
173 -190 76 -33 284 -100 311 -100 32 0 84 71 84 114 0 18 7 58 15 89 8 32 15
93 15 135 0 49 5 85 13 97 9 13 15 56 16 125 1 58 6 122 12 142 5 21 10 52 10
70 -1 106 31 353 55 425 7 23 16 101 20 175 3 73 12 146 20 163 21 48 28 138
14 177 -18 49 -7 88 25 88 33 0 52 42 37 82 -5 14 -6 30 -2 35 5 4 5 30 1 56
-8 46 -6 51 30 95 21 25 41 58 44 73 4 15 12 33 20 39 8 6 17 25 20 41 4 16
15 35 26 42 10 8 32 31 47 53 16 21 43 54 61 73 17 18 34 44 37 57 6 22 3 24
-27 24 -19 0 -43 -7 -53 -15 -11 -8 -30 -15 -42 -15 -12 0 -24 -5 -26 -11 -5
-14 -78 -30 -78 -17 0 6 -7 7 -15 4 -10 -4 -20 3 -27 19 -10 23 -28 30 -93 38
-11 1 -53 -2 -93 -6 -57 -7 -72 -12 -68 -22 3 -8 1 -17 -5 -20 -5 -4 -7 -10
-4 -15 3 -5 1 -11 -5 -15 -5 -3 -10 1 -10 9 0 9 -8 16 -18 16 -10 0 -31 14
-47 30 -16 17 -35 30 -43 30 -10 0 -12 8 -7 31 6 26 4 30 -12 27 -14 -2 -18 3
-18 24 -1 14 -7 33 -13 41 -11 13 -9 18 9 30 24 17 18 37 -12 37 -19 0 -76 34
-91 55 -5 6 -7 17 -7 25 3 35 -2 50 -16 50 -8 0 -28 18 -43 40 -32 46 -53 50
-72 14 -23 -41 -64 -57 -131 -50 -31 4 -59 3 -61 -1 -1 -5 -37 -25 -78 -45
-96 -47 -174 -53 -237 -20 -23 12 -48 22 -56 22 -13 0 -148 115 -155 133 -2 4
-10 7 -18 7 -15 0 -59 25 -82 47 -8 8 -9 13 -3 13 6 0 11 7 11 15 0 8 6 15 14
15 15 0 28 52 27 114 -1 22 4 58 10 80 9 34 8 42 -6 52 -11 8 -14 17 -9 26 5
7 9 18 9 23 0 6 14 10 30 10 39 0 41 28 2 35 -27 5 -29 8 -33 65 -5 84 4 132
31 158 13 12 32 40 44 61 19 37 20 41 4 58 -12 13 -25 17 -44 13 -39 -9 -55
22 -37 73 6 20 18 42 26 49 12 10 12 14 -2 28 -20 20 -25 86 -10 147 4 17 0
41 -9 60 -11 24 -13 46 -8 78 10 62 14 67 68 75 25 4 56 13 67 21 37 24 168
14 234 -17 33 -16 53 -20 84 -15 102 16 128 -96 44 -187 -22 -24 -26 -37 -26
-94 0 -36 6 -79 13 -96 24 -56 37 -103 37 -134 0 -42 9 -63 27 -63 10 0 12 -8
8 -34 -6 -27 -2 -38 19 -59 18 -18 26 -21 26 -12 0 8 4 15 9 15 5 0 12 11 15
25 6 23 10 25 48 20 32 -4 49 -14 75 -45 19 -22 42 -40 50 -40 9 0 46 -12 81
-26 56 -22 83 -26 200 -30 94 -2 141 -8 156 -18 13 -8 34 -12 49 -9 28 5 29 4
31 -52 1 -16 12 -21 51 -28 44 -7 51 -6 66 14 24 32 108 52 219 51 52 -1 105
1 117 4 30 6 54 53 40 75 -8 12 -5 25 12 52 21 35 22 35 76 30 63 -7 85 5 85
46 0 21 9 31 48 52 l47 25 -4 68 -3 67 86 86 c47 47 86 93 86 104 0 10 15 33
34 51 28 27 35 43 40 88 l7 55 -57 40 c-31 22 -63 50 -71 62 -16 24 -10 43 12
43 8 0 19 9 25 19 5 11 33 32 60 47 28 15 50 31 50 35 0 16 62 79 78 79 8 0
23 7 32 15 10 9 35 19 56 22 22 3 50 16 63 29 12 13 31 26 41 29 10 3 23 20
30 38 6 18 16 40 21 49 5 10 9 24 9 31 0 9 9 12 28 10 18 -3 36 4 56 22 16 14
35 25 43 25 19 0 84 34 109 58 11 11 30 25 42 31 12 6 21 17 19 24 -3 19 84
22 95 3 5 -9 15 -16 23 -16 22 0 30 22 12 32 -10 5 -16 19 -15 33 2 20 8 25
29 25 27 0 65 -32 55 -48 -3 -5 8 -23 23 -40 21 -22 35 -29 50 -25 11 3 46 2
76 -2 50 -6 56 -10 71 -40 16 -35 40 -50 65 -40 21 8 51 83 49 124 -3 61 -2
64 28 59 25 -4 27 -1 27 32 0 19 -7 56 -15 83 -13 42 -19 49 -52 58 -33 8 -38
14 -38 38 0 30 24 63 53 74 29 11 33 39 9 55 -12 8 -22 20 -22 26 0 7 -12 12
-27 11 -26 0 -29 4 -40 60 -9 43 -10 67 -2 87 11 28 12 24 -45 150 -14 31 -26
63 -26 72 0 26 -34 76 -52 76 -22 0 -22 4 -2 35 11 16 14 34 10 52 -26 108
-28 110 -90 119 -42 5 -53 20 -71 94 -9 36 -24 76 -33 90 -13 19 -17 49 -17
130 l0 104 -39 9 c-27 7 -45 6 -58 -2 -21 -13 -42 -5 -34 14 2 7 -16 29 -40
50 -56 48 -88 98 -79 125 9 28 -27 40 -78 27 -28 -7 -45 -6 -63 3 -16 9 -20
16 -13 21 8 5 6 14 -9 29 -20 21 -20 23 -3 53 16 29 16 31 -7 54 -12 12 -34
23 -47 23 -13 0 -27 5 -30 10 -4 6 -11 8 -16 5 -5 -4 -21 3 -35 14 -15 12 -35
21 -45 21 -29 0 -23 14 11 27 24 9 30 17 30 42 0 17 5 31 10 31 6 0 10 9 10
20 0 15 7 20 28 21 15 0 36 4 47 9 18 7 19 8 3 15 -22 9 -24 41 -3 49 31 12 6
65 -27 58 -5 -1 -8 3 -8 8 0 6 5 10 10 10 6 0 10 5 10 11 0 6 -9 8 -20 4 -20
-6 -28 9 -10 20 6 3 10 15 10 26 0 12 7 19 18 19 11 0 27 9 37 20 10 11 21 18
24 15 4 -2 13 0 21 6 13 7 12 9 -2 9 -10 0 -18 7 -18 16 0 14 8 15 54 10 63
-8 92 3 106 40 13 34 55 52 82 35 15 -9 23 -10 34 0 12 10 17 8 29 -7 14 -18
14 -18 15 4 0 14 6 22 18 22 16 1 16 1 0 14 -19 14 -24 46 -8 46 6 0 10 6 10
14 0 8 7 16 15 20 21 8 47 -4 41 -19 -3 -8 4 -24 16 -37 l20 -23 15 23 c9 12
23 22 32 23 9 0 4 5 -11 11 -16 5 -28 14 -28 19 0 18 51 21 89 5 22 -8 57 -13
78 -11 21 2 64 4 95 4 57 1 57 1 60 34 2 24 8 32 23 32 12 0 20 -6 19 -15 -1
-13 26 -15 180 -16 100 0 193 -3 207 -7 21 -5 28 -2 38 16 32 59 39 68 46 57
4 -6 15 -8 25 -5 11 3 29 0 42 -8 13 -8 52 -18 88 -21 56 -5 72 -3 114 18 27
14 54 22 59 19 6 -3 7 -1 3 5 -3 6 -2 13 4 17 6 4 8 11 4 16 -3 5 -10 7 -15 4
-20 -13 -7 9 22 36 36 33 49 30 49 -12 0 -19 5 -29 15 -29 8 0 15 -7 15 -15 0
-8 -4 -15 -10 -15 -13 0 25 -82 45 -96 20 -15 40 -9 79 23 25 21 35 23 81 18
34 -5 55 -3 59 4 4 6 22 11 41 11 24 0 39 7 53 24 12 16 23 21 28 16 6 -6 23
-3 45 9 25 14 40 16 53 9 22 -12 46 -3 46 17 0 8 5 15 10 15 6 0 10 -5 10 -12
0 -9 3 -9 12 0 18 18 34 15 79 -14 38 -24 42 -24 59 -9 16 15 21 14 59 -5 39
-21 51 -21 121 -2 8 2 31 6 50 9 19 3 44 14 56 24 14 13 42 21 88 26 60 5 69
4 87 -16 11 -11 28 -21 39 -21 13 0 18 -5 14 -15 -10 -24 77 -20 104 5 26 25
113 30 92 6 -9 -12 -5 -16 25 -22 20 -3 39 -4 42 0 4 3 -6 6 -20 6 -15 0 -27
4 -27 9 0 12 36 21 87 21 23 0 45 5 48 10 4 6 -7 10 -24 10 -21 0 -31 5 -31
15 0 10 10 15 34 15 44 0 66 -9 66 -26 0 -7 8 -17 18 -22 38 -20 42 -6 42 139
l0 139 -7038 0 c-7026 0 -7037 0 -7050 -20 -7 -11 -16 -20 -21 -20 -5 0 -13 9
-16 20 -6 20 -15 20 -2501 20 l-2494 0 5 -97z m2395 -88 c0 -8 -4 -15 -9 -15
-13 0 -22 16 -14 24 11 11 23 6 23 -9z m-1733 -51 c-3 -3 -12 -4 -19 -1 -8 3
-5 6 6 6 11 1 17 -2 13 -5z m18195 -26 c-9 -9 -15 -9 -24 0 -9 9 -7 12 12 12
19 0 21 -3 12 -12z m-142 -12 c0 -2 -9 -6 -20 -9 -11 -3 -18 -1 -14 4 5 9 34
13 34 5z m-1923 -52 c3 -9 0 -20 -8 -25 -24 -15 -33 -10 -15 10 13 15 14 20 4
24 -10 4 -10 6 0 6 7 1 15 -6 19 -15z m-1685 -73 c-8 -23 -7 -31 4 -35 8 -3
14 -11 14 -19 0 -18 39 -53 68 -62 13 -4 27 -18 33 -32 5 -14 18 -27 29 -30
19 -5 27 -33 13 -47 -4 -3 -7 -19 -8 -36 -1 -19 -18 -48 -49 -84 -45 -53 -50
-56 -87 -52 -22 2 -45 8 -52 15 -6 6 -16 11 -22 11 -6 0 -18 12 -27 28 -14 23
-14 32 -3 58 7 17 15 75 18 129 4 92 6 100 31 120 14 11 26 30 26 41 0 11 3
24 7 27 13 13 15 -2 5 -32z m808 -96 c0 -9 -6 -12 -15 -9 -8 4 -12 10 -9 15 8
14 24 10 24 -6z m48 -13 c2 -7 -2 -10 -12 -6 -9 3 -16 11 -16 16 0 13 23 5 28
-10z m-9031 -184 c-3 -8 -6 -5 -6 6 -1 11 2 17 5 13 3 -3 4 -12 1 -19z m160
-94 c-9 -9 -28 6 -21 18 4 6 10 6 17 -1 6 -6 8 -13 4 -17z m2223 -4 c0 -5 -5
-10 -11 -10 -5 0 -7 5 -4 10 3 6 8 10 11 10 2 0 4 -4 4 -10z m16 -45 c4 -14 4
-29 0 -32 -7 -8 -46 40 -39 49 10 17 33 7 39 -17z m-1335 -43 c-7 -2 -18 1
-23 6 -8 8 -4 9 13 5 13 -4 18 -8 10 -11z m66 2 c-3 -3 -12 -4 -19 -1 -8 3 -5
6 6 6 11 1 17 -2 13 -5z m7510 -61 c-3 -10 -5 -2 -5 17 0 19 2 27 5 18 2 -10
2 -26 0 -35z m43 27 c0 -5 -4 -10 -10 -10 -5 0 -10 5 -10 10 0 6 5 10 10 10 6
0 10 -4 10 -10z m-6807 -146 c17 -6 16 -8 -4 -30 -12 -13 -28 -24 -35 -24 -19
0 -36 37 -29 60 5 15 10 17 28 9 12 -5 30 -12 40 -15z m-18 -93 c3 -5 1 -13
-5 -16 -15 -9 -43 3 -35 15 8 13 32 13 40 1z m3895 -692 c23 -32 49 -43 67
-28 9 8 44 13 90 13 70 0 77 -2 99 -28 14 -15 22 -32 19 -37 -4 -5 18 -9 50
-9 42 0 57 4 62 16 7 18 81 53 136 64 49 10 287 -17 307 -35 8 -7 29 -16 47
-19 17 -4 34 -14 37 -22 3 -8 14 -14 25 -14 11 0 25 -10 32 -21 6 -12 14 -18
18 -13 3 5 24 10 46 12 65 4 136 23 142 38 6 16 53 19 53 4 0 -5 11 -10 24
-10 13 0 28 -6 34 -13 6 -7 26 -14 44 -15 37 -3 98 -28 98 -41 0 -5 14 -14 32
-20 17 -6 29 -14 25 -17 -6 -6 28 -44 41 -44 4 0 29 -21 56 -45 34 -31 62 -47
88 -51 20 -4 43 -13 49 -20 6 -8 23 -14 36 -14 31 0 213 -48 228 -60 5 -4 24
-10 40 -13 l30 -4 -32 -2 c-35 -1 -51 -15 -30 -28 7 -4 16 -16 20 -25 3 -9 22
-20 42 -24 19 -3 38 -10 41 -15 3 -5 10 -7 15 -4 5 4 9 1 9 -6 0 -6 8 -17 17
-24 14 -11 15 -16 5 -28 -8 -10 -11 -28 -7 -49 3 -18 7 -58 8 -89 4 -58 6 -64
90 -187 26 -39 47 -75 47 -81 0 -5 8 -16 18 -23 29 -22 42 -60 40 -118 -1 -30
1 -80 6 -110 7 -51 5 -57 -21 -85 -21 -22 -28 -41 -31 -79 -3 -54 -23 -86 -54
-86 -20 0 -25 -26 -5 -33 8 -3 6 -9 -7 -19 -13 -10 -17 -21 -12 -33 5 -15 4
-16 -9 -5 -8 7 -15 8 -15 3 0 -15 -117 1 -137 19 -15 14 -39 17 -121 17 -93
-1 -105 -3 -131 -25 -37 -30 -49 -30 -61 1 -12 33 -43 32 -86 0 l-34 -26 -86
21 c-102 24 -113 24 -133 6 -18 -16 -50 -22 -174 -32 -82 -6 -89 -5 -112 16
-19 18 -31 21 -57 16 -58 -10 -100 -15 -201 -21 -98 -6 -98 -6 -136 25 -22 16
-47 30 -57 30 -14 0 -15 3 -6 8 15 10 -21 46 -58 57 -14 4 -36 16 -49 26 -13
11 -34 19 -47 19 -17 0 -24 6 -24 20 0 23 -3 23 -82 20 -56 -2 -58 -1 -58 24
0 37 -40 52 -95 35 -50 -14 -123 -19 -151 -8 -12 4 -39 23 -60 41 -32 29 -48
34 -123 44 -112 15 -162 29 -189 54 -13 12 -46 25 -77 30 -70 11 -71 12 -79
56 -5 25 -16 41 -37 52 -16 9 -29 21 -29 26 0 5 -7 14 -16 20 -14 11 -14 18 5
74 20 57 20 64 6 79 -9 8 -14 22 -11 30 7 17 -45 73 -67 73 -22 0 -47 11 -47
21 0 14 73 59 97 59 14 0 23 6 23 16 0 10 -5 14 -15 10 -20 -7 -32 21 -16 37
6 6 11 18 11 27 0 9 6 22 13 29 6 6 12 15 12 19 1 16 31 72 38 72 9 0 3 85
-12 163 -5 26 -8 47 -7 48 0 1 28 2 60 4 43 2 63 8 73 20 7 10 10 22 7 26 -3
5 6 13 20 19 17 6 28 21 34 42 4 19 17 37 30 43 12 5 22 15 22 20 0 7 34 11
90 12 50 0 90 -3 90 -8 0 -5 8 -9 17 -9 14 0 13 4 -6 24 -13 14 -30 22 -38 19
-16 -6 -42 24 -43 49 0 11 10 18 33 21 70 9 83 7 97 -14z m2080 -439 c0 -5 -2
-10 -4 -10 -3 0 -8 5 -11 10 -3 6 -1 10 4 10 6 0 11 -4 11 -10z m1393 -647 c3
-5 -1 -14 -9 -21 -12 -11 -14 -9 -14 8 0 20 14 27 23 13z m-157 -85 c10 -15
-32 -48 -62 -48 -29 0 -38 14 -24 40 12 22 74 29 86 8z m-186 -68 c0 -11 -4
-20 -10 -20 -5 0 -10 9 -10 20 0 11 5 20 10 20 6 0 10 -9 10 -20z m-3724 -637
c17 -16 40 -44 52 -64 20 -32 20 -37 6 -43 -20 -8 -268 -8 -316 0 -35 6 -54
24 -25 24 7 0 48 24 92 54 97 66 143 73 191 29z m1099 17 c3 -5 1 -10 -4 -10
-6 0 -11 5 -11 10 0 6 2 10 4 10 3 0 8 -4 11 -10z m-756 -116 c34 -15 61 -33
61 -40 0 -21 -32 -33 -69 -26 -27 6 -35 14 -47 47 -7 22 -14 41 -14 43 0 5 11
1 69 -24z m-374 -74 c3 -5 25 -10 49 -10 45 0 106 -17 106 -29 0 -12 -144 -5
-148 8 -2 6 -12 11 -22 11 -20 0 -33 13 -23 24 10 9 31 7 38 -4z m-3538 -46
c9 -23 -13 -40 -32 -24 -20 17 -30 7 -17 -17 8 -14 5 -24 -9 -42 -26 -32 -31
-23 -23 37 6 51 13 58 57 61 10 0 20 -6 24 -15z m1843 -29 c25 -19 77 -37 122
-41 24 -2 65 -7 92 -10 27 -3 51 -2 55 3 3 5 38 18 76 28 39 11 62 21 53 23
-36 7 -17 17 38 20 38 2 61 -1 73 -11 9 -8 48 -17 86 -21 66 -7 155 -38 155
-56 0 -4 9 -10 20 -13 12 -3 20 -14 20 -26 0 -13 11 -26 31 -37 35 -17 119
-26 134 -14 11 9 14 10 55 10 23 0 30 4 30 20 0 20 10 24 55 21 119 -5 208
-15 248 -28 38 -12 57 -13 90 -4 65 16 90 17 95 3 2 -8 -5 -16 -17 -19 -20 -5
-21 -7 -6 -23 13 -15 14 -23 5 -39 -6 -12 -18 -22 -28 -23 -9 -1 44 -5 118 -8
130 -7 191 -1 235 22 13 8 20 8 23 0 2 -7 12 -7 34 0 25 9 33 8 49 -9 11 -10
23 -33 28 -50 8 -27 6 -36 -15 -58 -24 -26 -35 -95 -14 -95 13 0 13 -43 -1
-72 -15 -31 -175 -109 -234 -114 -61 -4 -248 -68 -266 -91 -6 -7 -18 -13 -27
-13 -14 0 -125 -49 -196 -87 -15 -9 -49 -35 -74 -59 -26 -25 -55 -44 -68 -44
-17 0 -25 -9 -33 -33 -17 -51 -51 -74 -118 -82 -32 -4 -64 -12 -71 -18 -12
-10 -49 -6 -132 13 -25 6 -56 12 -70 14 -96 12 -121 25 -100 51 9 11 9 15 1
15 -6 0 -11 7 -11 15 0 10 -14 17 -40 21 -22 4 -43 11 -46 15 -3 5 -17 9 -31
9 -15 0 -36 11 -49 25 -24 26 -46 27 -129 10 -21 -5 -26 -4 -16 3 17 12 8 90
-14 118 -12 16 -16 17 -24 4 -5 -8 -8 -17 -5 -21 2 -4 0 -11 -6 -14 -10 -6
-70 49 -70 64 0 3 -10 11 -22 16 -13 6 -31 27 -41 48 -12 26 -23 37 -32 33
-16 -6 -45 29 -45 55 0 9 -9 24 -19 33 -15 13 -19 28 -16 62 3 49 -13 74 -47
74 -16 0 -18 3 -9 14 12 14 5 46 -9 46 -4 0 -10 11 -12 25 -3 14 -1 25 3 25 5
0 9 5 9 10 0 6 -7 10 -15 10 -11 0 -15 11 -15 41 0 51 13 75 49 94 27 14 28
17 20 52 -14 63 -11 81 14 85 29 5 58 -2 77 -17z m3732 -98 c12 -20 9 -27 -16
-39 -18 -8 -37 -8 -70 1 -25 6 -64 11 -88 11 -98 1 -77 38 31 56 68 11 125 0
143 -29z m518 -106 c0 -22 -6 -43 -12 -48 -18 -11 -147 -8 -160 5 -16 16 89
80 135 81 37 1 37 1 37 -38z m-632 10 c11 -7 10 -10 -3 -15 -36 -13 -145 -2
-145 15 0 11 131 11 148 0z m-1434 -570 c3 -5 34 -7 69 -4 79 5 110 -6 130
-50 9 -19 23 -40 32 -47 8 -7 15 -23 15 -36 0 -17 6 -24 20 -24 11 0 20 -5 20
-11 0 -6 -14 -9 -32 -7 -18 2 -32 8 -31 15 3 15 -105 22 -111 7 -2 -5 -21 -16
-42 -23 -59 -19 -152 5 -175 45 -33 55 -25 79 34 112 59 34 64 35 71 23z
m-1654 -181 c0 -5 -9 -10 -19 -10 -11 0 -23 5 -26 10 -4 6 5 10 19 10 14 0 26
-4 26 -10z m678 -117 c-10 -2 -28 -2 -40 0 -13 2 -5 4 17 4 22 1 32 -1 23 -4z
m144 -7 c23 -17 13 -26 -32 -26 -41 0 -51 6 -43 26 7 18 52 18 75 0z m1972
-241 c3 -8 1 -15 -4 -15 -6 0 -10 -13 -10 -28 0 -15 -5 -33 -12 -40 -10 -10
-5 -11 21 -6 31 7 34 5 26 -12 -19 -45 -17 -69 9 -93 33 -31 33 -39 -1 -33
-39 7 -55 22 -50 48 3 20 -2 23 -40 31 -32 6 -49 15 -60 34 -15 25 -15 28 5
50 27 28 28 49 3 49 -21 0 -34 13 -24 24 3 3 34 6 69 6 46 0 63 -4 68 -15z
m-1076 -229 c-1 -1 -10 -7 -19 -14 -12 -9 -20 -8 -39 5 l-24 17 24 7 c20 5 70
-7 58 -15z m-745 -87 c35 -19 46 -20 72 -10 16 6 64 14 106 18 80 6 100 0 157
-51 20 -18 28 -19 82 -10 96 16 195 1 247 -37 37 -26 50 -30 81 -25 20 4 71 9
112 12 62 4 82 2 113 -15 33 -17 47 -18 94 -11 45 8 61 6 87 -8 17 -9 53 -19
80 -22 27 -3 51 -10 53 -16 4 -11 -47 -94 -80 -131 -18 -20 -25 -21 -111 -16
-50 3 -104 12 -119 20 -26 13 -32 12 -75 -14 -42 -25 -57 -28 -132 -28 -71 0
-90 4 -115 22 -25 17 -50 22 -142 27 -157 9 -171 13 -197 54 -22 35 -24 36
-92 37 -93 3 -152 21 -186 57 -31 33 -52 33 -146 1 -59 -20 -72 -8 -72 67 0
76 20 94 113 99 15 0 47 -9 70 -20z m-678 -365 c14 -9 31 -14 40 -11 8 4 17 2
20 -3 4 -6 -3 -10 -14 -10 -12 0 -30 -9 -41 -20 -24 -24 -39 -25 -46 -5 -6 16
3 65 12 65 2 0 16 -7 29 -16z m1141 -6 c0 -11 5 -23 12 -26 9 -3 11 4 8 22 -6
31 7 33 36 6 12 -11 34 -20 49 -20 14 0 43 -7 62 -15 20 -8 56 -15 80 -15 24
0 47 -4 53 -9 5 -5 61 -12 124 -14 126 -5 194 -24 188 -53 -2 -9 -31 -31 -65
-49 -35 -18 -70 -40 -79 -49 -17 -18 -103 -22 -132 -7 -56 31 -211 54 -252 38
-31 -12 -137 -10 -159 3 -12 7 -5 9 24 10 l39 0 -39 20 c-21 11 -53 25 -72 31
-18 6 -33 15 -33 20 0 5 -8 12 -17 16 -24 8 -63 44 -63 57 0 13 90 36 142 36
20 0 40 5 43 10 3 6 17 10 29 10 18 0 23 -5 22 -22z m1188 -27 c15 -16 15 -19
1 -31 -8 -7 -15 -25 -15 -41 0 -40 -17 -79 -35 -79 -8 0 -15 -5 -15 -12 0 -6
-6 -19 -14 -27 -8 -9 -17 -27 -19 -41 -8 -40 -18 -60 -32 -60 -6 0 -20 -9 -30
-20 -10 -11 -28 -20 -40 -20 -18 0 -21 -5 -19 -33 3 -32 1 -34 -29 -35 -34 -1
-68 -15 -108 -47 -14 -11 -36 -27 -47 -35 -20 -13 -20 -16 -6 -31 14 -15 14
-21 2 -46 -10 -22 -21 -29 -51 -31 -23 -2 -37 1 -37 9 0 8 -4 8 -15 -1 -8 -7
-15 -11 -16 -9 -9 37 -8 74 3 87 11 14 10 15 -6 9 -13 -5 -25 -1 -38 12 -23
25 -23 31 1 31 10 0 25 7 32 16 7 9 22 20 34 24 17 7 17 9 3 9 -22 1 -24 31
-3 31 8 0 15 9 15 20 0 11 6 20 13 20 9 0 9 2 -1 8 -16 10 23 48 78 77 110 57
141 79 210 147 41 41 84 78 95 82 13 5 16 10 7 13 -22 8 -2 23 32 23 19 0 40
-8 50 -19z m268 -556 c5 -23 3 -25 -36 -25 l-41 1 30 24 c37 31 42 31 47 0z"/>
<path d="M12280 10105 c0 -8 5 -15 10 -15 6 0 10 7 10 15 0 8 -4 15 -10 15 -5
0 -10 -7 -10 -15z"/>
<path d="M7857 11964 c-8 -8 1 -24 14 -24 5 0 9 7 9 15 0 15 -12 20 -23 9z"/>
<path d="M7865 11881 c-3 -5 -1 -12 5 -16 5 -3 10 1 10 9 0 18 -6 21 -15 7z"/>
<path d="M7380 11850 c0 -5 5 -10 10 -10 6 0 10 5 10 10 0 6 -4 10 -10 10 -5
0 -10 -4 -10 -10z"/>
<path d="M7675 11785 l1 -60 44 -3 c25 -1 54 -7 65 -13 16 -7 31 -5 63 8 55
24 44 41 -38 54 -36 6 -70 15 -77 21 -9 7 -13 7 -13 0 0 -23 -39 1 -43 27 -2
14 -3 -1 -2 -34z"/>
<path d="M7218 11793 c7 -3 16 -2 19 1 4 3 -2 6 -13 5 -11 0 -14 -3 -6 -6z"/>
<path d="M8092 11560 c-21 -34 -15 -41 26 -34 48 9 47 9 23 33 -26 26 -33 26
-49 1z"/>
<path d="M7526 11283 c5 -5 12 -12 16 -18 4 -6 8 -2 8 8 0 9 -7 17 -17 17 -9
0 -12 -3 -7 -7z"/>
<path d="M7591 11234 c0 -11 3 -14 6 -6 3 7 2 16 -1 19 -3 4 -6 -2 -5 -13z"/>
<path d="M13750 8291 c0 -5 5 -13 10 -16 6 -3 10 -2 10 4 0 5 -4 13 -10 16 -5
3 -10 2 -10 -4z"/>
<path d="M14890 7389 c0 -5 5 -7 10 -4 6 3 10 8 10 11 0 2 -4 4 -10 4 -5 0
-10 -5 -10 -11z"/>
<path d="M3320 6067 c0 -10 6 -30 14 -45 7 -15 17 -57 20 -94 5 -40 14 -72 22
-79 23 -19 44 -65 44 -96 0 -34 25 -73 47 -73 19 0 11 55 -17 103 -10 18 -21
46 -25 64 -3 17 -13 37 -21 44 -8 6 -14 24 -14 38 0 15 -7 36 -15 47 -8 10
-15 28 -15 39 0 11 -9 31 -20 45 -16 21 -20 22 -20 7z"/>
<path d="M3460 5637 c0 -18 38 -137 51 -160 5 -10 7 -22 3 -28 -3 -5 1 -21 10
-34 9 -13 16 -37 16 -53 0 -15 4 -32 9 -37 11 -13 80 -182 87 -215 3 -14 6
-37 7 -52 1 -16 5 -28 8 -28 9 0 27 -49 34 -95 7 -46 45 -127 63 -133 23 -7
12 82 -24 183 -20 55 -48 141 -62 190 -15 50 -30 95 -34 101 -4 6 -12 32 -18
57 -5 26 -26 80 -45 121 -19 41 -35 83 -35 92 0 27 -42 104 -57 104 -7 0 -13
-6 -13 -13z"/>
<path d="M3744 4775 c-4 -8 -3 -27 2 -43 4 -15 8 -34 9 -42 3 -22 24 -60 34
-60 16 0 20 43 10 89 -14 64 -42 92 -55 56z"/>
<path d="M4432 4578 c-16 -16 -16 -61 0 -56 13 5 30 68 19 68 -4 0 -12 -5 -19
-12z"/>
<path d="M3816 4525 c4 -8 10 -12 15 -9 11 6 2 24 -11 24 -5 0 -7 -7 -4 -15z"/>
<path d="M3882 3717 c-12 -24 -26 -68 -32 -98 -6 -29 -15 -67 -21 -84 -20 -64
-34 -194 -21 -207 8 -8 21 9 51 72 22 45 46 90 54 99 26 32 49 96 53 148 3 48
1 57 -25 83 -15 17 -30 30 -33 30 -2 0 -14 -19 -26 -43z"/>
<path d="M15131 3569 c-48 -14 -112 -63 -161 -120 l-41 -48 -82 -3 c-67 -2
-81 -6 -78 -18 15 -59 15 -63 -8 -57 -13 3 -41 -1 -63 -9 -43 -15 -94 -10 -67
7 11 6 10 9 -4 15 -9 3 -17 12 -17 19 0 22 -30 38 -70 37 -38 -2 -90 -17 -100
-30 -3 -4 -14 -12 -25 -18 -17 -10 -20 -22 -20 -72 0 -33 -3 -64 -7 -68 -22
-21 -5 -72 47 -144 59 -80 68 -110 35 -110 -22 0 -114 41 -190 85 -41 23 -51
25 -117 19 -57 -5 -83 -2 -123 12 -48 17 -52 17 -108 0 -31 -10 -81 -29 -110
-42 -64 -30 -88 -72 -77 -141 5 -35 2 -49 -14 -72 -28 -39 -26 -70 9 -146 17
-35 30 -68 30 -73 0 -5 14 -29 30 -54 21 -31 63 -69 134 -117 137 -95 218
-166 266 -235 22 -31 37 -56 34 -56 -2 0 -26 11 -52 24 -66 33 -141 94 -238
193 -45 46 -90 83 -100 83 -9 0 -73 27 -141 61 -107 53 -132 61 -186 63 -36 2
-76 10 -96 20 -42 22 -149 18 -198 -7 -32 -17 -93 -97 -93 -122 0 -8 5 -26 12
-40 10 -22 8 -28 -10 -48 -38 -40 -28 -86 45 -211 7 -12 13 -32 13 -45 0 -19
-4 -22 -22 -18 -29 7 -110 35 -163 56 -21 9 -66 16 -100 16 -50 0 -69 -5 -110
-31 -42 -26 -50 -35 -47 -58 2 -18 -8 -41 -32 -74 -40 -56 -49 -105 -50 -301
-1 -91 -4 -125 -14 -129 -21 -7 -81 67 -121 148 -21 41 -50 100 -65 130 -15
30 -31 62 -37 70 -5 8 -14 25 -19 38 -14 32 -34 23 -41 -19 -6 -41 11 -80 43
-98 17 -9 45 -56 92 -154 37 -78 84 -168 104 -199 l37 -58 51 0 c68 0 88 -22
91 -99 2 -54 3 -56 27 -53 21 2 31 -6 56 -44 16 -26 35 -63 41 -83 6 -20 19
-49 29 -66 40 -68 37 -75 -56 -171 -98 -101 -171 -198 -185 -246 -15 -49 -12
-159 5 -199 8 -20 46 -70 83 -111 37 -42 79 -96 92 -121 21 -39 23 -49 12 -73
-13 -33 -71 -98 -116 -131 l-30 -22 1419 -1 1418 0 -6 35 c-4 19 -2 43 3 53 7
13 5 35 -5 73 -9 30 -17 65 -19 79 -2 14 -9 53 -15 87 -7 35 -10 70 -6 78 3 9
-1 33 -9 53 -9 20 -18 63 -21 97 -3 33 -10 77 -16 97 -11 36 -10 39 28 76 72
72 173 143 346 243 105 60 233 152 280 200 10 10 39 30 65 45 27 15 59 37 73
50 14 12 57 41 95 64 112 67 167 106 208 144 20 20 41 36 46 36 5 0 22 25 36
55 15 30 31 55 36 55 13 0 11 156 -3 201 -6 21 -19 41 -28 44 -10 3 -20 15
-23 25 -3 11 -12 20 -21 20 -18 0 -20 8 -6 30 8 12 10 12 10 1 0 -8 3 -12 6
-9 6 6 -53 186 -67 203 -4 6 -16 33 -27 61 -12 28 -34 66 -51 85 -17 18 -33
41 -36 50 -3 10 -21 19 -43 23 -39 7 -92 46 -92 69 0 7 -5 18 -10 23 -11 11
-17 35 -25 88 -6 37 -17 50 -71 80 -41 23 -43 23 -49 5 -6 -19 -45 -27 -45
-10 0 5 -3 16 -6 25 -4 10 -1 16 9 16 13 0 12 9 -8 53 -14 28 -25 61 -25 73 0
12 -9 31 -20 44 -11 13 -25 40 -30 60 -10 37 -40 52 -40 20 0 -25 -32 -51 -50
-40 -8 5 -25 7 -37 4 -15 -4 -25 0 -33 15 -6 12 -15 21 -20 21 -5 0 -19 8 -30
17 -23 20 -26 60 -5 87 13 17 23 18 90 13 72 -6 75 -6 65 12 -22 43 -102 111
-142 122 -23 6 -51 17 -62 24 -32 21 -102 44 -112 37 -21 -16 -31 -50 -28 -99
3 -49 2 -53 -19 -53 -13 0 -27 4 -32 8 -6 5 -36 19 -67 32 -32 12 -58 26 -58
29 0 4 -24 18 -52 31 -62 28 -98 57 -98 80 0 9 -4 20 -8 25 -5 6 -15 43 -22
83 -9 50 -18 72 -28 72 -11 0 -13 8 -8 38 4 20 8 55 9 77 l2 40 -45 2 c-25 1
-61 -3 -79 -8z m292 -596 c-7 -2 -19 -2 -25 0 -7 3 -2 5 12 5 14 0 19 -2 13
-5z m17 -23 c0 -16 57 -40 97 -40 21 0 51 -7 67 -15 15 -8 32 -12 37 -9 13 8
82 -15 95 -32 6 -7 34 -25 62 -39 28 -14 55 -32 59 -40 4 -7 30 -24 57 -38 26
-13 43 -26 35 -29 -21 -7 1 -30 25 -26 22 4 46 -12 46 -32 0 -16 -19 -12 -47
10 -14 11 -32 20 -39 20 -8 0 -14 4 -14 9 0 5 -26 12 -57 15 -32 3 -71 7 -88
8 -16 2 -38 -3 -47 -10 -13 -11 -27 -12 -70 -3 -36 8 -54 9 -56 1 -2 -5 -26
-10 -54 -10 -41 0 -48 -2 -39 -13 8 -11 7 -18 -7 -30 -18 -16 -60 -27 -58 -15
1 4 -9 15 -21 23 -13 9 -23 22 -23 29 0 7 -8 28 -17 46 -12 24 -13 35 -5 38
19 6 14 32 -5 33 -14 0 -13 2 5 9 12 6 22 18 22 30 0 13 7 20 20 20 24 0 26
25 4 38 -12 7 -15 17 -10 36 6 25 26 37 26 16z m-689 -227 c40 -27 84 -54 98
-62 45 -25 251 -182 251 -192 0 -5 4 -9 10 -9 19 0 129 -91 136 -112 3 -12 20
-33 38 -47 56 -47 186 -196 186 -214 0 -4 21 -27 46 -50 42 -38 45 -45 41 -79
-5 -35 -3 -38 19 -38 25 0 33 -15 13 -22 -17 -6 -78 25 -79 39 0 19 -35 33
-83 33 -25 0 -55 6 -68 13 -28 14 -37 57 -13 57 9 0 14 3 12 8 -3 4 -11 22
-18 40 -14 31 -33 41 -44 23 -4 -5 -22 -5 -43 0 -21 5 -63 9 -94 9 -41 0 -63
6 -81 20 -14 10 -28 16 -32 13 -6 -6 -10 26 -8 57 1 8 3 35 5 60 2 25 7 53 11
62 6 13 1 18 -28 24 -20 3 -39 11 -42 16 -3 5 -16 13 -29 18 -13 5 -29 22 -37
37 -13 27 -15 28 -88 25 -85 -3 -128 15 -152 65 -8 17 -21 28 -33 28 -13 0
-20 7 -20 20 -1 11 -3 25 -6 30 -9 15 2 105 12 105 5 0 9 13 9 28 0 57 19 56
111 -5z m1329 -88 c0 -8 5 -15 10 -15 6 0 10 -4 10 -9 0 -6 -17 -7 -37 -4 -46
7 -45 6 -37 27 8 20 54 22 54 1z m-5 -137 c55 -13 82 -32 80 -57 -3 -43 -25
-51 -135 -53 -117 -2 -130 -4 -130 -24 0 -8 -10 -14 -25 -14 -18 0 -25 6 -26
20 -1 11 -2 26 -3 33 -1 7 23 16 64 22 l65 11 3 36 c3 37 21 51 52 41 8 -3 33
-10 55 -15z m-2742 -545 c56 -58 106 -124 107 -139 0 -28 -65 -32 -97 -6 -23
18 -93 152 -93 177 0 29 38 15 83 -32z m1237 -204 c30 -35 57 -66 60 -69 51
-49 141 -181 176 -259 15 -36 41 -78 56 -95 15 -17 28 -38 28 -47 0 -9 9 -28
20 -42 11 -14 20 -34 20 -45 0 -12 9 -23 20 -27 11 -3 20 -11 20 -17 0 -15
-53 0 -63 18 -4 8 -16 14 -26 14 -29 0 -45 25 -31 50 9 16 8 21 -5 26 -8 3
-15 10 -15 15 0 5 -15 30 -33 56 -18 27 -33 61 -34 76 -1 16 -3 31 -7 34 -3 3
-52 5 -108 5 -132 0 -167 18 -168 84 0 23 -6 34 -25 42 -29 13 -31 21 -10 48
20 26 19 54 -2 54 -15 0 -16 2 -3 10 28 18 -2 24 -120 24 l-119 0 5 26 c8 35
92 109 127 111 42 2 45 3 58 16 21 21 117 -36 179 -108z m1319 -88 c47 -26
101 -54 119 -61 17 -7 32 -16 32 -20 0 -4 14 -13 30 -20 17 -7 30 -15 30 -19
0 -3 -16 -22 -35 -42 -49 -53 -94 -59 -164 -22 -30 15 -67 38 -81 51 -14 12
-33 25 -42 28 -19 6 -24 21 -32 99 -2 28 -8 58 -12 68 -6 17 -5 18 31 3 21 -9
77 -38 124 -65z m-2375 53 c30 -11 76 -108 76 -158 0 -57 -20 -69 -56 -35 -54
50 -103 166 -81 188 12 12 37 14 61 5z m-248 -149 c16 -8 43 -15 60 -15 29 0
63 -24 56 -39 -1 -3 7 -8 20 -9 12 -2 41 -16 63 -32 22 -15 67 -45 100 -66 33
-21 90 -68 126 -104 78 -77 245 -264 267 -300 9 -14 25 -36 38 -50 21 -25 61
-118 56 -133 -1 -4 2 -16 8 -27 24 -45 -42 -25 -102 32 -18 16 -43 34 -55 39
-13 5 -23 15 -23 24 0 9 -9 15 -24 15 -27 0 -136 94 -136 117 0 18 -96 59
-160 68 -71 10 -94 24 -99 60 -4 39 -16 62 -57 108 -19 20 -34 42 -34 48 0 5
-4 8 -8 5 -9 -6 -26 23 -37 62 -4 12 -12 22 -20 22 -7 0 -23 11 -36 25 -13 13
-29 25 -35 25 -17 0 -24 24 -18 69 2 22 0 42 -6 46 -13 8 -3 25 14 25 8 0 27
-7 42 -15z m452 -112 c-5 -25 -28 -28 -28 -4 0 12 6 21 16 21 9 0 14 -7 12
-17z m1957 -252 c-3 -6 -11 -11 -16 -11 -5 0 -4 6 3 14 14 16 24 13 13 -3z
m-245 -570 c0 -6 -4 -13 -10 -16 -5 -3 -10 1 -10 9 0 9 5 16 10 16 6 0 10 -4
10 -9z"/>
<path d="M3638 2931 c-12 -16 -34 -48 -48 -72 -14 -23 -35 -57 -47 -76 -41
-60 -28 -100 49 -157 37 -28 58 -28 58 0 0 8 6 25 14 37 17 27 26 81 28 167 0
36 6 71 12 79 7 10 6 16 -7 26 -9 6 -14 15 -10 18 3 4 -1 7 -9 7 -9 0 -27 -13
-40 -29z"/>
<path d="M80 2758 c-1 -2 -2 -623 -4 -1380 l-3 -1378 2078 0 c1144 0 2079 1
2079 3 0 2 -11 18 -25 37 -14 19 -25 42 -25 52 0 11 -11 23 -25 28 -14 5 -26
15 -26 22 -1 7 -2 20 -3 27 0 9 -19 20 -43 25 -23 6 -45 14 -49 19 -4 4 -17 7
-29 7 -20 0 -55 28 -55 44 0 25 -73 66 -118 66 -18 0 -45 15 -77 44 -28 24
-61 47 -75 51 -14 4 -43 20 -64 36 -22 16 -44 29 -48 29 -5 0 -29 20 -55 44
-25 24 -65 52 -89 62 -27 11 -43 24 -41 33 1 8 -9 20 -22 27 -13 7 -40 30 -60
51 -20 22 -45 46 -56 54 -11 7 -28 26 -38 41 -10 16 -26 28 -37 28 -11 0 -20
6 -20 14 0 8 -11 17 -25 20 -14 4 -25 11 -25 16 0 16 -126 140 -143 140 -8 0
-20 7 -28 16 -7 8 -34 26 -60 40 l-48 24 5 52 c2 29 7 72 9 96 5 42 34 95 66
119 10 7 19 35 23 67 6 44 14 61 43 90 20 20 40 36 45 36 4 0 8 17 8 39 0 32
29 117 30 86 0 -5 4 -3 10 5 5 9 5 19 -1 26 -15 18 0 43 29 46 21 2 26 8 25
26 -2 15 5 26 20 33 22 10 27 17 57 75 8 16 20 33 27 37 7 4 13 14 13 21 0 8
11 17 24 20 14 3 33 20 43 36 18 30 100 86 163 110 19 7 47 21 61 31 14 10 37
21 52 24 15 4 27 11 27 16 0 5 -11 7 -25 3 -34 -8 -86 16 -80 38 3 9 1 19 -5
23 -6 4 -8 14 -4 24 3 9 10 32 14 51 5 19 12 45 15 58 4 12 3 22 -2 22 -11 0
-73 -92 -73 -108 0 -6 -6 -23 -14 -39 -8 -15 -20 -43 -27 -60 -6 -18 -18 -33
-25 -33 -8 0 -14 -4 -14 -8 0 -4 -30 -31 -67 -59 -112 -85 -175 -160 -165
-196 4 -15 -39 -77 -53 -77 -7 0 -27 -14 -45 -30 -27 -25 -31 -35 -27 -60 8
-37 -22 -104 -63 -144 -38 -38 -76 -101 -85 -146 -7 -33 -40 -80 -56 -80 -4 0
-17 15 -28 33 -11 19 -49 53 -83 77 -35 24 -65 47 -68 51 -17 22 -242 141
-670 355 -332 166 -492 244 -735 359 -55 26 -129 62 -165 80 -36 18 -110 51
-165 74 -55 23 -167 75 -250 115 -370 181 -553 261 -555 244z m1220 -745 c0
-12 2 -12 16 1 12 13 20 14 36 5 17 -9 24 -8 33 5 16 21 27 20 55 -4 14 -12
37 -20 60 -20 42 0 93 -16 130 -39 25 -16 49 -27 135 -57 83 -29 139 -55 160
-74 11 -9 76 -37 145 -60 69 -23 141 -52 160 -65 19 -12 48 -26 64 -29 16 -4
41 -20 57 -37 15 -16 32 -29 38 -29 6 0 11 -6 11 -14 0 -8 9 -18 20 -21 14 -4
20 -15 20 -35 0 -29 -28 -50 -40 -30 -4 7 -8 -1 -8 -17 -2 -55 -6 -64 -44 -98
-21 -19 -34 -35 -28 -35 5 0 10 -5 10 -11 0 -5 -4 -7 -10 -4 -5 3 -15 -5 -22
-19 -6 -14 -17 -26 -24 -26 -7 0 -18 -9 -24 -20 -8 -15 -6 -24 9 -39 19 -19
19 -19 -1 -24 -11 -3 -17 -10 -14 -15 3 -5 -2 -12 -13 -15 -13 -3 -17 -13 -16
-36 2 -30 0 -32 -24 -26 -14 4 -27 10 -29 15 -4 11 -32 1 -32 -11 0 -5 7 -9
15 -9 9 0 15 -9 15 -25 0 -20 -6 -27 -30 -31 -17 -4 -32 -15 -36 -27 -4 -14
-8 -16 -14 -7 -4 6 -9 -11 -12 -40 -3 -28 -10 -56 -15 -61 -14 -14 -71 -20
-78 -8 -8 12 -75 12 -75 -1 0 -5 -6 -10 -14 -10 -8 0 -28 -8 -45 -17 -25 -15
-34 -16 -51 -5 -27 16 -30 15 -30 -8 0 -16 5 -19 28 -14 29 5 67 -13 45 -23
-19 -7 -16 -24 3 -21 10 2 19 -2 21 -9 5 -14 -63 -20 -179 -15 -68 3 -78 6
-78 22 0 10 6 21 13 23 6 3 2 6 -10 6 -17 1 -23 7 -23 24 0 12 -9 28 -20 35
-24 14 -25 25 -6 45 8 8 16 29 19 48 3 27 4 25 3 -10 0 -36 4 -45 24 -57 28
-15 124 -19 115 -5 -3 5 0 13 6 16 5 4 10 28 9 54 -3 68 -2 71 19 71 30 0 46
40 34 83 -6 25 -100 24 -150 -2 -21 -11 -64 -22 -96 -24 -32 -2 -61 -7 -64
-11 -14 -14 -32 33 -33 87 0 44 -3 57 -15 57 -10 0 -15 11 -15 35 0 29 -5 37
-25 45 -16 6 -25 18 -26 32 -1 17 -2 19 -6 6 -2 -10 -8 -18 -12 -18 -12 0 -33
109 -29 150 2 30 7 35 26 33 12 -2 22 2 22 7 0 16 -43 29 -62 18 -15 -7 -18
-4 -18 17 0 17 -4 24 -11 19 -15 -9 -29 14 -29 48 0 15 -4 30 -10 33 -22 13
-8 25 29 25 45 0 73 9 66 20 -11 17 15 60 35 60 20 0 20 1 4 25 -16 24 -16 25
7 25 23 0 23 0 3 18 -12 11 -43 22 -79 26 -69 8 -91 21 -73 43 9 11 9 19 0 34
-10 15 -8 22 10 39 12 11 18 20 12 21 -5 0 0 4 11 8 25 10 45 3 45 -16z m1227
-490 c3 -8 -6 -11 -23 -10 -15 1 -29 8 -32 15 -3 10 4 13 24 10 15 -2 29 -8
31 -15z m-1247 -173 c0 -5 -2 -10 -4 -10 -3 0 -8 5 -11 10 -3 6 -1 10 4 10 6
0 11 -4 11 -10z m59 -67 c0 -36 -3 -43 -9 -28 -12 28 -12 75 0 75 6 0 10 -21
9 -47z m-52 -5 c-3 -8 -6 -5 -6 6 -1 11 2 17 5 13 3 -3 4 -12 1 -19z m1000 -4
c-3 -3 -12 -4 -19 -1 -8 3 -5 6 6 6 11 1 17 -2 13 -5z m-907 -40 c0 -3 -7 -12
-15 -20 -16 -17 -18 -14 -9 10 6 15 24 23 24 10z m-20 -139 c0 -9 -6 -12 -15
-9 -8 4 -15 10 -15 15 0 5 7 9 15 9 8 0 15 -7 15 -15z m540 -234 c0 -11 5 -23
10 -26 6 -3 10 -14 10 -25 0 -13 -5 -17 -20 -13 -16 4 -20 14 -20 44 0 22 5
39 10 39 6 0 10 -9 10 -19z m830 -502 c0 -7 10 -9 26 -5 24 6 26 5 20 -16 -3
-13 -6 -26 -6 -30 0 -4 -15 -7 -32 -5 -29 2 -33 6 -35 35 -2 23 1 32 12 32 8
0 15 -5 15 -11z"/>
<path d="M1525 1540 c-3 -5 -1 -10 4 -10 6 0 11 5 11 10 0 6 -2 10 -4 10 -3 0
-8 -4 -11 -10z"/>
<path d="M1360 1516 c0 -36 14 -76 26 -76 10 0 14 13 14 41 0 39 2 41 25 37
13 -3 22 -1 19 3 -9 15 -84 11 -84 -5z"/>
<path d="M1427 1470 c-7 -26 -4 -34 11 -29 4 2 5 15 2 29 l-6 25 -7 -25z"/>
<path d="M1687 904 c-11 -12 3 -24 28 -24 13 0 26 4 29 9 10 15 -43 29 -57 15z"/>
<path d="M1760 830 c0 -5 5 -10 10 -10 6 0 10 5 10 10 0 6 -4 10 -10 10 -5 0
-10 -4 -10 -10z"/>
<path d="M4485 2737 c-10 -8 -14 -16 -9 -20 5 -3 20 3 33 14 27 22 6 27 -24 6z"/>
<path d="M4425 2709 c-4 -6 -5 -12 -2 -15 2 -3 7 2 10 11 7 17 1 20 -8 4z"/>
<path d="M4381 2671 c-10 -6 -9 -10 3 -14 8 -3 18 -2 21 3 8 13 -9 20 -24 11z"/>
<path d="M4330 2660 c-8 -5 -23 -10 -33 -10 -19 0 -113 -64 -270 -185 -54 -41
-116 -84 -138 -96 -22 -11 -60 -35 -85 -54 -25 -19 -55 -35 -67 -35 -49 0 -92
-20 -109 -50 -12 -21 -14 -30 -5 -30 29 0 133 32 147 45 9 8 36 21 59 30 56
20 100 46 183 112 37 29 71 53 77 53 5 0 27 16 48 35 21 19 42 35 47 35 5 0
17 7 27 16 10 9 33 23 51 32 18 10 37 27 43 40 5 12 14 22 20 22 5 0 15 11 22
25 12 27 7 31 -17 15z"/>
<path d="M3556 2481 c-4 -5 3 -7 14 -4 23 6 26 13 6 13 -8 0 -17 -4 -20 -9z"/>
<path d="M3525 2450 c-3 -5 -2 -10 4 -10 5 0 13 5 16 10 3 6 2 10 -4 10 -5 0
-13 -4 -16 -10z"/>
<path d="M11240 2150 c-6 -11 -20 -50 -31 -87 -11 -38 -31 -104 -44 -148 -42
-139 -97 -376 -91 -391 7 -17 57 -19 74 -2 7 7 12 26 12 42 0 17 12 72 26 121
31 111 38 136 64 250 12 50 30 118 41 152 11 35 18 67 14 73 -11 17 -54 11
-65 -10z"/>
<path d="M11773 2108 c-9 -12 -16 -35 -59 -191 -9 -33 -23 -61 -34 -67 -13 -7
-59 -5 -147 5 -159 19 -162 19 -170 -1 -9 -24 11 -31 106 -39 47 -3 115 -11
150 -17 l63 -10 -6 -40 c-4 -21 -20 -82 -37 -134 -17 -52 -31 -114 -32 -137
-2 -38 0 -42 24 -45 29 -3 42 17 63 107 8 31 28 110 46 176 18 66 43 163 57
215 14 52 26 115 27 140 1 39 -2 45 -20 48 -11 2 -25 -3 -31 -10z"/>
<path d="M12069 2058 c-1 -4 -28 -118 -43 -183 -8 -33 -29 -105 -46 -160 -17
-55 -42 -138 -55 -185 -14 -47 -27 -94 -30 -106 -7 -23 14 -47 32 -36 7 4 41
95 77 202 96 288 99 294 131 298 14 2 33 -2 41 -9 14 -11 74 -96 74 -104 0 -2
14 -25 31 -50 18 -26 39 -65 48 -88 25 -64 68 -142 85 -156 12 -10 20 -10 43
1 41 19 41 44 0 57 -28 10 -40 24 -73 89 -45 88 -132 241 -166 291 -54 79
-141 161 -149 139z"/>
<path d="M12240 1545 c0 -28 15 -34 24 -9 10 25 7 34 -9 34 -9 0 -15 -9 -15
-25z"/>
<path d="M12202 1442 c-22 -49 -29 -102 -14 -102 5 0 14 11 20 25 12 26 28
125 20 125 -2 0 -14 -22 -26 -48z"/>
<path d="M7712 426 c-17 -38 -149 -56 -174 -24 -11 14 -33 18 -133 19 -130 1
-189 -6 -220 -27 -20 -15 -135 -20 -135 -6 0 4 -38 6 -84 4 -60 -3 -94 1 -122
13 -25 10 -40 12 -42 5 -5 -14 -59 -13 -65 3 -4 8 -8 8 -14 2 -4 -5 -48 -11
-98 -12 -84 -1 -163 -13 -227 -32 -16 -5 -30 -5 -37 2 -7 7 -18 4 -37 -8 -19
-12 -52 -19 -108 -21 -139 -7 -209 -15 -266 -34 -72 -23 -156 -39 -200 -39
-86 1 -186 1 -200 1 -8 -1 -49 -3 -91 -6 -43 -2 -82 -7 -89 -11 -6 -4 -77 -6
-158 -5 -81 1 -181 -1 -222 -5 -50 -5 -95 -3 -135 5 -60 13 -118 14 -123 1 -1
-3 -36 -5 -78 -3 -109 5 -144 -3 -144 -33 0 -18 8 -28 33 -38 67 -29 193 -49
325 -53 115 -3 139 -7 156 -23 16 -14 39 -19 101 -20 44 -2 84 -6 90 -10 16
-11 76 -29 123 -36 65 -10 50 -24 -30 -28 -40 -1 1000 -4 2312 -5 1393 -1
2379 2 2370 7 -8 5 -56 14 -105 19 -50 6 -103 15 -118 21 -16 6 -39 11 -53 11
-13 0 -24 6 -24 13 0 8 -17 12 -48 13 -26 1 -72 12 -102 25 -40 17 -76 24
-130 25 -41 0 -100 5 -130 10 -30 4 -60 9 -66 9 -6 0 -18 5 -25 11 -8 6 -32
17 -54 25 -22 7 -44 17 -50 21 -5 4 -24 8 -42 8 -22 0 -36 6 -43 20 -10 18
-21 21 -88 20 -109 0 -112 0 -112 13 0 8 -3 8 -12 -1 -16 -16 -45 -15 -55 1
-12 19 -82 37 -149 38 -33 1 -63 4 -69 7 -5 4 -21 8 -35 10 -14 1 -35 14 -46
29 -17 20 -28 24 -47 19 -25 -6 -54 14 -40 27 3 4 0 7 -8 7 -8 0 -20 -5 -27
-12 -9 -9 -16 -8 -30 5 -18 16 -20 16 -43 -2 -24 -19 -71 -19 -109 -1 -3 1
-35 8 -72 15 -48 9 -81 10 -118 2 -35 -7 -58 -7 -73 0 -20 10 -117 33 -136 33
-4 0 -13 -11 -19 -24z"/>
<path d="M16174 342 c-22 -14 -34 -52 -34 -105 0 -56 -24 -151 -46 -177 -6 -8
-15 -25 -18 -37 l-7 -23 1565 0 1566 0 0 75 0 75 -50 0 c-36 0 -52 -4 -56 -15
-4 -8 -10 -12 -15 -9 -5 3 -7 10 -4 15 4 5 -1 9 -10 9 -9 0 -14 -4 -10 -9 3
-5 1 -12 -5 -16 -5 -3 -10 -2 -10 3 0 13 -97 21 -249 23 -102 1 -127 -2 -143
-16 -23 -19 -76 -12 -85 12 -5 13 -28 14 -153 9 -154 -6 -239 -19 -252 -39 -6
-9 -10 -8 -17 3 -8 11 -30 14 -108 12 -54 -2 -106 -5 -116 -8 -10 -3 -24 0
-32 6 -10 8 -31 10 -67 4 -79 -11 -297 -11 -302 1 -3 6 -5 2 -5 -7 -1 -15 -10
-18 -49 -18 -26 0 -53 5 -60 12 -14 14 -75 12 -207 -6 -55 -7 -116 -12 -135
-10 -19 2 -66 7 -105 10 -38 4 -73 11 -77 17 -8 14 -157 24 -246 17 -40 -3
-80 -1 -88 3 -9 5 -32 7 -52 4 -171 -25 -202 -26 -233 -9 -29 16 -30 19 -28
82 3 94 -19 137 -57 112z"/>
<path d="M15891 112 c-5 -20 -12 -54 -16 -75 l-6 -37 80 0 80 0 -15 35 c-8 19
-14 37 -14 40 1 28 -2 35 -12 35 -6 0 -20 8 -30 17 -35 31 -56 27 -67 -15z"/>
<path d="M10238 3 c6 -2 18 -2 25 0 6 3 1 5 -13 5 -14 0 -19 -2 -12 -5z"/>
</g>
</svg>
