<?xml version="1.0" standalone="no"?>
<!DOCTYPE svg PUBLIC "-//W3C//DTD SVG 20010904//EN"
 "http://www.w3.org/TR/2001/REC-SVG-20010904/DTD/svg10.dtd">
<svg version="1.0" xmlns="http://www.w3.org/2000/svg"
 width="207.000000pt" height="87.000000pt" viewBox="0 0 207.000000 87.000000"
 preserveAspectRatio="xMidYMid meet">

<g transform="translate(0.000000,87.000000) scale(0.100000,-0.100000)"
fill="#000000" stroke="none">
<path d="M784 795 c14 -10 36 -13 75 -10 l56 5 -43 -11 c-23 -6 -40 -14 -37
-20 8 -12 36 -11 90 2 40 10 43 13 32 30 -10 16 -24 19 -102 19 -81 -1 -88 -2
-71 -15z"/>
<path d="M1123 791 c-11 -17 -8 -20 32 -30 54 -13 82 -14 90 -2 3 6 -14 14
-37 20 l-43 11 56 -5 c39 -3 61 0 75 10 17 13 10 14 -71 15 -78 0 -92 -3 -102
-19z"/>
<path d="M906 746 c-26 -8 -36 -15 -27 -20 14 -9 98 11 107 25 7 12 -33 9 -80
-5z"/>
<path d="M1094 751 c9 -13 93 -34 107 -25 8 4 -4 12 -32 20 -51 16 -83 18 -75
5z"/>
<path d="M945 722 c-34 -16 -37 -19 -19 -24 26 -7 86 13 92 30 5 17 -26 15
-73 -6z"/>
<path d="M1062 728 c6 -17 66 -37 92 -30 18 5 15 8 -19 24 -47 21 -78 23 -73
6z"/>
<path d="M40 290 l0 -200 30 0 30 0 0 81 0 80 28 -3 c23 -3 27 -8 30 -38 7
-109 11 -120 43 -120 l29 0 0 74 c0 58 -4 79 -19 97 -18 22 -18 26 -4 41 21
23 28 101 13 137 -14 36 -52 51 -126 51 l-54 0 0 -200z m115 80 c0 -53 -1 -55
-27 -58 -28 -3 -28 -3 -28 58 0 61 0 61 28 58 26 -3 27 -5 27 -58z"/>
<path d="M376 463 c-12 -56 -56 -338 -56 -356 0 -14 6 -18 28 -15 22 2 28 8
30 36 3 30 6 32 42 32 37 0 39 -2 46 -35 6 -31 10 -35 38 -35 l33 0 -29 178
c-38 243 -30 222 -82 222 -40 0 -45 -3 -50 -27z m73 -230 c1 -8 -11 -13 -27
-13 l-29 0 8 58 c20 133 21 134 35 47 7 -44 13 -86 13 -92z"/>
<path d="M630 290 l0 -200 30 0 30 0 0 63 c0 85 14 104 36 52 9 -22 22 -56 29
-75 10 -29 18 -36 43 -38 18 -2 32 0 32 5 0 4 -19 55 -42 112 l-41 104 41 83
c23 47 42 86 42 89 0 3 -12 5 -28 5 -25 0 -32 -9 -69 -82 l-42 -83 0 83 -1 82
-30 0 -30 0 0 -200z"/>
<path d="M1303 475 c-29 -20 -44 -76 -33 -116 5 -18 34 -58 65 -89 56 -60 69
-96 41 -119 -20 -17 -44 -3 -51 30 -6 24 -12 29 -37 29 -30 0 -30 -1 -25 -36
9 -55 41 -84 94 -84 60 0 93 33 93 90 0 52 -11 72 -72 138 -38 41 -49 58 -46
80 2 21 8 27 28 27 18 0 26 -6 28 -22 3 -18 10 -23 34 -23 30 0 30 1 25 38 -4
20 -16 45 -28 55 -26 21 -87 22 -116 2z"/>
<path d="M1550 316 c0 -161 1 -175 21 -200 19 -24 27 -27 72 -24 41 2 54 8 71
31 19 26 21 41 21 195 l0 167 -30 0 -30 0 -3 -167 c-2 -141 -5 -167 -19 -172
-37 -15 -43 10 -43 180 l0 164 -30 0 -30 0 0 -174z"/>
<path d="M1823 473 c3 -10 18 -100 33 -201 l28 -182 48 0 c26 0 48 3 48 8 0 4
14 90 30 192 16 102 30 188 30 193 0 4 -13 7 -29 7 l-28 0 -16 -102 c-9 -57
-19 -128 -23 -158 -8 -54 -8 -55 -15 -20 -4 19 -15 90 -25 158 l-17 122 -34 0
c-28 0 -33 -3 -30 -17z"/>
<path d="M900 60 c0 -19 7 -20 145 -20 138 0 145 1 145 20 0 19 -7 20 -145 20
-138 0 -145 -1 -145 -20z"/>
</g>
</svg>
